<svg id="visual" viewBox="0 0 1700 645" width="1700" height="645" xmlns="http://www.w3.org/2000/svg" xmlns:xlink="http://www.w3.org/1999/xlink" version="1.1"><rect x="0" y="0" width="1700" height="690" fill="#09091D"></rect><defs><linearGradient id="grad1_0" x1="59.4%" y1="100%" x2="100%" y2="0%"><stop offset="0.7246376811594253%" stop-color="#09091d" stop-opacity="1"></stop><stop offset="99.27536231884058%" stop-color="#09091d" stop-opacity="1"></stop></linearGradient></defs><defs><linearGradient id="grad2_0" x1="0%" y1="100%" x2="40.6%" y2="0%"><stop offset="0.7246376811594253%" stop-color="#09091d" stop-opacity="1"></stop><stop offset="99.27536231884058%" stop-color="#09091d" stop-opacity="1"></stop></linearGradient></defs><g transform="translate(1700, 690)"><path d="M-621 0C-558.3 -31.2 -495.6 -62.4 -497.2 -113.5C-498.8 -164.5 -564.6 -235.4 -547.8 -263.8C-531 -292.2 -431.5 -278.1 -401.9 -320.5C-372.2 -362.9 -412.4 -461.7 -387.2 -485.5C-362 -509.3 -271.4 -458 -218.7 -454.1C-165.9 -450.2 -151 -493.7 -120.8 -529.4C-90.7 -565.1 -45.3 -593.1 0 -621L0 0Z" fill="#e2d2d2"></path></g><g transform="translate(0, 0)"><path d="M621 0C578.1 36.9 535.2 73.8 533.3 121.7C531.4 169.7 570.5 228.7 559.5 269.4C548.5 310.2 487.3 332.6 438.6 349.8C389.9 366.9 353.7 378.7 327.3 410.5C301 442.2 284.6 494 254.3 528C223.9 562 179.6 578.3 134.8 590.8C90.1 603.4 45.1 612.2 0 621L0 0Z" fill="#e2d2d2"></path></g></svg>