<svg id="visual" viewBox="0 0 900 600" width="900" height="600" xmlns="http://www.w3.org/2000/svg" xmlns:xlink="http://www.w3.org/1999/xlink" version="1.1"><rect x="0" y="0" width="900" height="600" fill="#09091D"></rect><defs><linearGradient id="grad1_0" x1="33.3%" y1="100%" x2="100%" y2="0%"><stop offset="20%" stop-color="#e2d2d2" stop-opacity="1"></stop><stop offset="80%" stop-color="#e2d2d2" stop-opacity="1"></stop></linearGradient></defs><defs><linearGradient id="grad1_1" x1="33.3%" y1="100%" x2="100%" y2="0%"><stop offset="20%" stop-color="#e2d2d2" stop-opacity="1"></stop><stop offset="80%" stop-color="#99878e" stop-opacity="1"></stop></linearGradient></defs><defs><linearGradient id="grad1_2" x1="33.3%" y1="100%" x2="100%" y2="0%"><stop offset="20%" stop-color="#504452" stop-opacity="1"></stop><stop offset="80%" stop-color="#99878e" stop-opacity="1"></stop></linearGradient></defs><defs><linearGradient id="grad1_3" x1="33.3%" y1="100%" x2="100%" y2="0%"><stop offset="20%" stop-color="#504452" stop-opacity="1"></stop><stop offset="80%" stop-color="#09091d" stop-opacity="1"></stop></linearGradient></defs><defs><linearGradient id="grad2_0" x1="0%" y1="100%" x2="66.7%" y2="0%"><stop offset="20%" stop-color="#e2d2d2" stop-opacity="1"></stop><stop offset="80%" stop-color="#e2d2d2" stop-opacity="1"></stop></linearGradient></defs><defs><linearGradient id="grad2_1" x1="0%" y1="100%" x2="66.7%" y2="0%"><stop offset="20%" stop-color="#99878e" stop-opacity="1"></stop><stop offset="80%" stop-color="#e2d2d2" stop-opacity="1"></stop></linearGradient></defs><defs><linearGradient id="grad2_2" x1="0%" y1="100%" x2="66.7%" y2="0%"><stop offset="20%" stop-color="#99878e" stop-opacity="1"></stop><stop offset="80%" stop-color="#504452" stop-opacity="1"></stop></linearGradient></defs><defs><linearGradient id="grad2_3" x1="0%" y1="100%" x2="66.7%" y2="0%"><stop offset="20%" stop-color="#09091d" stop-opacity="1"></stop><stop offset="80%" stop-color="#504452" stop-opacity="1"></stop></linearGradient></defs><g transform="translate(900, 600)"><path d="M-378.6 0C-365.2 -39.2 -351.8 -78.5 -330 -107.2C-308.2 -136 -278.1 -154.2 -262.9 -191C-247.8 -227.8 -247.6 -283.1 -222.5 -306.3C-197.5 -329.4 -147.5 -320.5 -106.3 -327.2C-65.1 -333.9 -32.5 -356.2 0 -378.6L0 0Z" fill="#2d2737"></path><path d="M-283.9 0C-273.9 -29.4 -263.8 -58.9 -247.5 -80.4C-231.2 -102 -208.6 -115.7 -197.2 -143.3C-185.8 -170.9 -185.7 -212.3 -166.9 -229.7C-148.1 -247.1 -110.7 -240.4 -79.7 -245.4C-48.8 -250.4 -24.4 -267.2 0 -283.9L0 0Z" fill="#74646f"></path><path d="M-189.3 0C-182.6 -19.6 -175.9 -39.2 -165 -53.6C-154.1 -68 -139 -77.1 -131.5 -95.5C-123.9 -113.9 -123.8 -141.6 -111.3 -153.1C-98.7 -164.7 -73.8 -160.2 -53.2 -163.6C-32.5 -166.9 -16.3 -178.1 0 -189.3L0 0Z" fill="#bdacaf"></path><path d="M-94.6 0C-91.3 -9.8 -87.9 -19.6 -82.5 -26.8C-77.1 -34 -69.5 -38.6 -65.7 -47.8C-61.9 -57 -61.9 -70.8 -55.6 -76.6C-49.4 -82.4 -36.9 -80.1 -26.6 -81.8C-16.3 -83.5 -8.1 -89.1 0 -94.6L0 0Z" fill="#e2d2d2"></path></g><g transform="translate(0, 0)"><path d="M378.6 0C347.6 30.7 316.5 61.4 309.1 100.4C301.6 139.4 317.7 186.7 306.3 222.5C294.8 258.4 255.8 282.8 219.2 301.8C182.7 320.7 148.6 334.3 112.5 346.2C76.4 358.1 38.2 368.3 0 378.6L0 0Z" fill="#2d2737"></path><path d="M283.9 0C260.7 23 237.4 46.1 231.8 75.3C226.2 104.6 238.3 140 229.7 166.9C221.1 193.8 191.8 212.1 164.4 226.3C137 240.6 111.5 250.7 84.4 259.6C57.3 268.6 28.6 276.2 0 283.9L0 0Z" fill="#74646f"></path><path d="M189.3 0C173.8 15.4 158.3 30.7 154.5 50.2C150.8 69.7 158.9 93.3 153.1 111.3C147.4 129.2 127.9 141.4 109.6 150.9C91.3 160.4 74.3 167.1 56.2 173.1C38.2 179 19.1 184.2 0 189.3L0 0Z" fill="#bdacaf"></path><path d="M94.6 0C86.9 7.7 79.1 15.4 77.3 25.1C75.4 34.9 79.4 46.7 76.6 55.6C73.7 64.6 63.9 70.7 54.8 75.4C45.7 80.2 37.2 83.6 28.1 86.5C19.1 89.5 9.5 92.1 0 94.6L0 0Z" fill="#e2d2d2"></path></g></svg>