<svg id="visual" viewBox="0 0 1700 90" width="1700" height="90" xmlns="http://www.w3.org/2000/svg" xmlns:xlink="http://www.w3.org/1999/xlink" version="1.1"><rect x="0" y="0" width="1700" height="100" fill="#09091D"></rect><defs><linearGradient id="grad1_0" x1="88.2%" y1="0%" x2="100%" y2="100%"><stop offset="-120%" stop-color="#09091d" stop-opacity="1"></stop><stop offset="220%" stop-color="#09091d" stop-opacity="1"></stop></linearGradient></defs><defs><linearGradient id="grad2_0" x1="0%" y1="0%" x2="11.8%" y2="100%"><stop offset="-120%" stop-color="#09091d" stop-opacity="1"></stop><stop offset="220%" stop-color="#09091d" stop-opacity="1"></stop></linearGradient></defs><g transform="translate(1700, 0)"><path d="M0 200C-13.5 193 -27.1 186 -41.6 182.3C-56.2 178.6 -71.7 178.3 -82 170.3C-92.3 162.3 -97.4 146.6 -111.6 139.9C-125.8 133.3 -149.2 135.6 -156.4 124.7C-163.5 113.7 -154.5 89.5 -151.4 72.9C-148.2 56.3 -150.8 47.4 -159.9 36.5C-169 25.6 -184.5 12.8 -200 0L0 0Z" fill="#e2d2d2"></path></g><g transform="translate(0, 200)"><path d="M0 -200C14.6 -192.7 29.1 -185.3 40.3 -176.5C51.4 -167.6 59.2 -157.2 75.5 -156.8C91.8 -156.3 116.5 -165.7 124.7 -156.4C132.9 -147 124.5 -118.8 131.3 -104.7C138.2 -90.7 160.2 -90.8 171.2 -82.4C182.2 -74.1 182.3 -57.4 185.2 -42.3C188.2 -27.1 194.1 -13.6 200 0L0 0Z" fill="#e2d2d2"></path></g></svg>