<svg id="visual" viewBox="0 0 1650 690" width="1650" height="690" xmlns="http://www.w3.org/2000/svg" xmlns:xlink="http://www.w3.org/1999/xlink" version="1.1"><rect x="0" y="0" width="1650" height="690" fill="#09091D"></rect><defs><linearGradient id="grad1_0" x1="47.1%" y1="100%" x2="100%" y2="0%"><stop offset="12.222222222222225%" stop-color="#09091d" stop-opacity="1"></stop><stop offset="87.77777777777779%" stop-color="#09091d" stop-opacity="1"></stop></linearGradient></defs><defs><linearGradient id="grad2_0" x1="0%" y1="100%" x2="52.9%" y2="0%"><stop offset="12.222222222222225%" stop-color="#09091d" stop-opacity="1"></stop><stop offset="87.77777777777779%" stop-color="#09091d" stop-opacity="1"></stop></linearGradient></defs><g transform="translate(1650, 690)"><path d="M-900 0C-883.3 -91 -866.5 -182.1 -836.9 -271.9C-807.4 -361.8 -764.9 -450.5 -699 -507.8C-633 -565.2 -543.6 -591.2 -473.8 -652.1C-403.9 -713 -353.8 -808.8 -278.1 -856C-202.4 -903.1 -101.2 -901.5 0 -900L0 0Z" fill="#09091D"></path></g><g transform="translate(0, 0)"><path d="M900 0C816.2 73.5 732.3 146.9 697.1 226.5C661.9 306.1 675.4 391.9 656.1 476.7C636.8 561.5 584.7 645.4 517.3 711.9C449.8 778.4 366.9 827.5 278.1 856C189.3 884.4 94.7 892.2 0 900L0 0Z" fill="#e2d2d2"></path></g></svg>