<svg id="visual" viewBox="0 0 1700 800" width="1700" height="800" xmlns="http://www.w3.org/2000/svg" xmlns:xlink="http://www.w3.org/1999/xlink" version="1.1"><rect x="0" y="0" width="1700" height="900" fill="#e2d2d2"></rect><defs><linearGradient id="grad1_0" x1="47.1%" y1="100%" x2="100%" y2="0%"><stop offset="12.222222222222225%" stop-color="#e2d2d2" stop-opacity="1"></stop><stop offset="87.77777777777779%" stop-color="#e2d2d2" stop-opacity="1"></stop></linearGradient></defs><defs><linearGradient id="grad2_0" x1="0%" y1="100%" x2="52.9%" y2="0%"><stop offset="12.222222222222225%" stop-color="#e2d2d2" stop-opacity="1"></stop><stop offset="87.77777777777779%" stop-color="#e2d2d2" stop-opacity="1"></stop></linearGradient></defs><g transform="translate(1700, 900)"><path d="M-900 0C-825.8 -72.2 -751.5 -144.4 -730.4 -237.3C-709.3 -330.2 -741.4 -443.8 -702.2 -510.2C-663.1 -576.6 -552.7 -595.7 -474.9 -653.7C-397.1 -711.7 -351.8 -808.4 -278.1 -856C-204.4 -903.5 -102.2 -901.7 0 -900L0 0Z" fill="#09091d"></path></g><g transform="translate(0, 0)"><path d="M900 0C891.6 98.4 883.2 196.8 833.1 270.7C783.1 344.6 691.3 394 631.8 459.1C572.4 524.1 545.1 604.7 493.2 678.8C441.2 752.8 364.4 820.2 278.1 856C191.8 891.7 95.9 895.9 0 900L0 0Z" fill="#e2d2d2"></path></g></svg>