<svg id="visual" viewBox="0 0 1700 200" width="1700" height="200" xmlns="http://www.w3.org/2000/svg" xmlns:xlink="http://www.w3.org/1999/xlink" version="1.1"><rect x="0" y="0" width="1700" height="200" fill="#09091D"></rect><path d="M0 154L40.5 145.3C81 136.7 162 119.3 243 105.5C324 91.7 405 81.3 486 89.7C567 98 648 125 728.8 133.8C809.7 142.7 890.3 133.3 971.2 118.8C1052 104.3 1133 84.7 1214 90.3C1295 96 1376 127 1457 129C1538 131 1619 104 1659.5 90.5L1700 77L1700 201L1659.5 201C1619 201 1538 201 1457 201C1376 201 1295 201 1214 201C1133 201 1052 201 971.2 201C890.3 201 809.7 201 728.8 201C648 201 567 201 486 201C405 201 324 201 243 201C162 201 81 201 40.5 201L0 201Z" fill="#e2d2d2" stroke-linecap="round" stroke-linejoin="miter"></path></svg>