<svg id="visual" viewBox="0 0 1700 900" width="1700" height="900" xmlns="http://www.w3.org/2000/svg" xmlns:xlink="http://www.w3.org/1999/xlink" version="1.1"><rect x="0" y="0" width="1700" height="900" fill="#e2d2d2"></rect><path d="M0 702L31.5 682.2C63 662.3 126 622.7 189 633C252 643.3 315 703.7 378 727.8C441 752 504 740 567 708.5C630 677 693 626 755.8 620C818.7 614 881.3 653 944.2 655.3C1007 657.7 1070 623.3 1133 618.7C1196 614 1259 639 1322 643.7C1385 648.3 1448 632.7 1511 637.5C1574 642.3 1637 667.7 1668.5 680.3L1700 693L1700 901L1668.5 901C1637 901 1574 901 1511 901C1448 901 1385 901 1322 901C1259 901 1196 901 1133 901C1070 901 1007 901 944.2 901C881.3 901 818.7 901 755.8 901C693 901 630 901 567 901C504 901 441 901 378 901C315 901 252 901 189 901C126 901 63 901 31.5 901L0 901Z" fill="#09091D" stroke-linecap="round" stroke-linejoin="miter"></path></svg>